<svg id="Layer_1" data-name="Layer 1" xmlns="http://www.w3.org/2000/svg" viewBox="0 0 80 80">
  <path d="M52,22.19V58.48H27.67V22.86c3,4.28,7.35,6.77,11.95,6.77,4.83,0,9.38-2.75,12.4-7.44m1.35-2H51.64c-2.64,4.91-7,8.12-12,8.12s-9.38-3.21-12-8.12H26.32V59.84H53.37V20.16Z"/>
  <path d="M53.82,22.9l9.27,6.35-.46.49-1.79,1.91a13.22,13.22,0,0,0-2.67,3.43,14.16,14.16,0,0,0-.89,2l-3.46-2.37V22.9m-1.35-2.56V35.46l5.63,3.86a12,12,0,0,1,1.26-3.6,12.09,12.09,0,0,1,2.43-3.11L65.15,29,52.47,20.34Z"/>
  <path d="M26.32,22.81V34.66l-3.6,2.46a13.69,13.69,0,0,0-.89-2,13.53,13.53,0,0,0-2.67-3.44l-2.25-2.39,9.41-6.44m1.35-2.57L14.85,29q1.68,1.78,3.35,3.58a11.87,11.87,0,0,1,2.44,3.11,12.24,12.24,0,0,1,1.26,3.6l5.77-4V20.24Z"/>
</svg>
