<svg id="Layer_1" data-name="Layer 1" xmlns="http://www.w3.org/2000/svg" viewBox="0 0 80 80">
  <defs>
    <style>
      .cls-1, .cls-2, .cls-3 {
        fill: none;
        stroke: #000;
        stroke-miterlimit: 10;
      }

      .cls-1 {
        stroke-width: 1.14px;
      }

      .cls-2 {
        stroke-width: 1.23px;
      }

      .cls-3 {
        stroke-width: 2.46px;
      }
    </style>
  </defs>
  <g id="dele">
    <polygon class="cls-1" points="54.47 16.91 55.11 18.41 37.83 25.77 51.24 57.25 49.52 57.98 36.1 26.51 18.82 33.88 18.18 32.38 54.47 16.91"/>
    <polygon class="cls-2" points="56.3 57.77 56.3 59.21 52.95 63.09 19.05 63.09 19.05 57.77 56.3 57.77"/>
    <polygon class="cls-2" points="57.32 48.33 57.32 55.63 55.91 57.77 51.02 57.77 57.25 48.28 57.32 48.33"/>
    <rect class="cls-2" x="57.32" y="46.52" width="4.5" height="11.05"/>
    <path class="cls-2" d="M44.78,41.55A3.28,3.28,0,1,1,40.19,37a8.39,8.39,0,0,0-3.33-.67,8.48,8.48,0,0,0-3.34.67,3.28,3.28,0,1,1-4.59,4.59,8.57,8.57,0,0,0-.67,3.33,8.66,8.66,0,0,0,.67,3.34,3.28,3.28,0,1,1,4.59,4.59,8.66,8.66,0,0,0,3.34.67,8.57,8.57,0,0,0,3.33-.67,3.28,3.28,0,1,1,4.59-4.59,8.48,8.48,0,0,0,.67-3.34A8.39,8.39,0,0,0,44.78,41.55Zm-7.92,5a1.64,1.64,0,1,1,1.64-1.64A1.63,1.63,0,0,1,36.86,46.52Z"/>
    <circle class="cls-3" cx="36.86" cy="44.88" r="10.23"/>
  </g>
</svg>
