<svg id="Layer_1" data-name="Layer 1" xmlns="http://www.w3.org/2000/svg" viewBox="0 0 150 80">
  <defs>
    <style>
      .cls-1, .cls-3 {
        fill: #fff;
      }

      .cls-1, .cls-2 {
        stroke: #fff;
        stroke-miterlimit: 10;
      }

      .cls-1 {
        stroke-width: 0.26px;
      }

      .cls-2 {
        fill: #4d4d4d;
        stroke-width: 0.3px;
      }

      .cls-3 {
        font-size: 12px;
        font-family: MyriadPro-Regular, Myriad Pro;
      }

      .cls-4 {
        letter-spacing: -0.01em;
      }

      .cls-5 {
        letter-spacing: -0.01em;
      }

      .cls-6 {
        letter-spacing: 0em;
      }
    </style>
  </defs>
  <path class="cls-1" d="M39.1,43.59A13.05,13.05,0,0,0,36,37.83c-.5-.48-1.09-1-2-1.76-.41-.37-.89-.83-1.45-1.38A39,39,0,0,1,29.15,31c-1.64-2.07-2.46-3.11-2.87-4.59a8.84,8.84,0,0,1,.86-6.32,22.75,22.75,0,0,0-4.59,4.88,16.53,16.53,0,0,0-3.16,6.89,9.92,9.92,0,0,0,.06,3.62,5.15,5.15,0,0,1-.06,2.69,13.49,13.49,0,0,1-1-2C18.11,35.46,18,35,18,35a13.33,13.33,0,0,1-.57-4,18,18,0,0,0-4.6,15.5c.23,1.07.37,1.85.46,2.39,0,.18.08.5.18.93a12.47,12.47,0,0,0,.37,1.27,13.2,13.2,0,0,0,25.68-4.31,15.29,15.29,0,0,0-.36-3.09Z"/>
  <path class="cls-2" d="M37.22,53.37a4.65,4.65,0,0,0-.33-4.29c-.38-.52-.52-.38-2-1.65-1.31-1.14-1.79-1.77-2-1.65s.41,1.16.66,2.64a8.41,8.41,0,0,1-1.32,5.94c-1.19,1.72-2.63,2.16-2.45,2.58s2.35.22,4.1-.6A5.81,5.81,0,0,0,37.22,53.37Z"/>
  <text class="cls-3" transform="translate(44.25 48.81)">+10.000 p<tspan class="cls-4" x="49.79" y="0">r</tspan><tspan x="53.59" y="0">oduk</tspan><tspan class="cls-5" x="79.19" y="0">t</tspan><tspan class="cls-6" x="83.09" y="0">er</tspan></text>
</svg>
