<svg id="Layer_1" data-name="Layer 1" xmlns="http://www.w3.org/2000/svg" viewBox="0 0 160 80">
  <defs>
    <style>
      .cls-1, .cls-2, .cls-3 {
        fill: none;
        stroke: #000;
        stroke-miterlimit: 10;
      }

      .cls-1 {
        stroke-width: 2px;
      }

      .cls-2 {
        stroke-width: 2.06px;
      }

      .cls-3 {
        stroke-width: 2.06px;
      }

      .cls-4 {
        font-size: 12px;
        font-family: MyriadPro-Regular, Myriad Pro;
      }

      .cls-5 {
        letter-spacing: -0.03em;
      }

      .cls-6 {
        letter-spacing: 0em;
      }

      .cls-7 {
        letter-spacing: 0em;
      }

      .cls-8 {
        letter-spacing: 0em;
      }

      .cls-9 {
        letter-spacing: -0.01em;
      }

      .cls-10 {
        letter-spacing: -0.01em;
      }
    </style>
  </defs>
  <path class="cls-1" d="M34.12,25.8v23A2.93,2.93,0,0,0,33.05,51v.15H17.71a2.9,2.9,0,0,0-5.8,0H8.75V29.51a3.71,3.71,0,0,1,3.72-3.71Z"/>
  <path class="cls-2" d="M17.71,51.17v.14a2.9,2.9,0,0,1-5.8,0v-.14a2.9,2.9,0,0,1,5.8,0Z"/>
  <path class="cls-3" d="M38.85,51a2.81,2.81,0,0,1,0,.29,2.9,2.9,0,0,1-5.79-.14V51a2.93,2.93,0,0,1,1.07-2.25.67.67,0,0,1,.14-.09A2.86,2.86,0,0,1,36,48.12,2.91,2.91,0,0,1,38.85,51Z"/>
  <path class="cls-1" d="M45.25,39.38V51.31H38.84a2.81,2.81,0,0,0,0-.29,2.91,2.91,0,0,0-2.9-2.9,2.86,2.86,0,0,0-1.69.56V42.14h-.14V34h8.13l3,5.34Z"/>
  <polygon class="cls-1" points="41.16 42.14 41.16 42.17 34.12 42.17 34.12 37.38 39.06 37.38 41.16 42.14"/>
  <text class="cls-4" transform="translate(47.83 45.34)"><tspan class="cls-5">F</tspan><tspan class="cls-6" x="5.53" y="0">r</tspan><tspan class="cls-7" x="9.5" y="0">i f</tspan><tspan class="cls-8" x="18.36" y="0">r</tspan><tspan x="22.22" y="0">agt </tspan><tspan class="cls-9" x="41.23" y="0">o</tspan><tspan class="cls-10" x="47.74" y="0">v</tspan><tspan x="53.39" y="0">er 599 DKK</tspan></text>
</svg>
