<svg id="Layer_1" data-name="Layer 1" xmlns="http://www.w3.org/2000/svg" viewBox="0 0 1679.78 682.35">
  <defs>
    <style>
      .cls-1, .cls-13, .cls-14, .cls-19, .cls-20, .cls-22, .cls-3 {
        fill: #fff;
      }

      .cls-1, .cls-10, .cls-11, .cls-2, .cls-3, .cls-4, .cls-5, .cls-6, .cls-7, .cls-8, .cls-9 {
        stroke: #000;
      }

      .cls-1, .cls-10, .cls-11, .cls-12, .cls-13, .cls-14, .cls-15, .cls-16, .cls-17, .cls-18, .cls-19, .cls-2, .cls-20, .cls-21, .cls-3, .cls-4, .cls-5, .cls-6, .cls-7, .cls-8, .cls-9 {
        stroke-miterlimit: 10;
      }

      .cls-1 {
        stroke-width: 0.87px;
      }

      .cls-12, .cls-2, .cls-4, .cls-5, .cls-7, .cls-8, .cls-9 {
        fill: none;
      }

      .cls-2 {
        stroke-width: 2.63px;
      }

      .cls-3, .cls-4 {
        stroke-width: 3px;
      }

      .cls-5 {
        stroke-width: 2.75px;
      }

      .cls-7 {
        stroke-width: 1.14px;
      }

      .cls-8 {
        stroke-width: 1.23px;
      }

      .cls-9 {
        stroke-width: 2.46px;
      }

      .cls-10 {
        stroke-width: 0.5px;
      }

      .cls-11 {
        stroke-width: 3.75px;
      }

      .cls-12, .cls-13, .cls-14, .cls-15, .cls-16, .cls-17, .cls-18, .cls-19, .cls-20, .cls-21 {
        stroke: #fff;
      }

      .cls-12 {
        stroke-width: 1.04px;
        stroke-dasharray: 43 12.42 0.01 0 0 0;
      }

      .cls-13 {
        stroke-width: 0.36px;
      }

      .cls-14, .cls-15 {
        stroke-width: 0.48px;
      }

      .cls-15, .cls-21 {
        fill: #4d4d4d;
      }

      .cls-16, .cls-17, .cls-18 {
        fill: #666;
      }

      .cls-16 {
        stroke-width: 2px;
      }

      .cls-17 {
        stroke-width: 2.06px;
      }

      .cls-18 {
        stroke-width: 2.06px;
      }

      .cls-19 {
        stroke-width: 0.26px;
      }

      .cls-20 {
        stroke-width: 0.33px;
      }

      .cls-21 {
        stroke-width: 0.3px;
      }

      .cls-22 {
        font-size: 12px;
        font-family: MyriadPro-Regular, Myriad Pro;
      }

      .cls-23 {
        letter-spacing: -0.03em;
      }

      .cls-24 {
        letter-spacing: 0em;
      }

      .cls-25 {
        letter-spacing: 0em;
      }

      .cls-26 {
        letter-spacing: 0em;
      }

      .cls-27 {
        letter-spacing: -0.01em;
      }

      .cls-28 {
        letter-spacing: -0.01em;
      }

      .cls-29 {
        letter-spacing: -0.01em;
      }

      .cls-30 {
        letter-spacing: 0em;
      }

      .cls-31 {
        letter-spacing: -0.01em;
      }

      .cls-32 {
        letter-spacing: -0.01em;
      }
    </style>
  </defs>
  <path d="M34.92,42.79h10c1.12,0,4.66.35,6.12,2.57.08.13.16.27.23.41l0,4.68,0,2.24H28.73l0-4,0-3.36a1.41,1.41,0,0,1,.11-.38c.63-1.46,4.05-2.13,6.16-2.13m0-3c-.68,0-7.25.1-8.91,3.93a4.4,4.4,0,0,0-.36,1.43c0,3.51.07,7,.11,10.54H54.35c0-3.51-.07-7-.11-10.54a7.06,7.06,0,0,0-.71-1.43c-2.36-3.61-7.4-3.89-8.58-3.93h-10Z" transform="translate(-22.49 -19.41)"/>
  <path class="cls-1" d="M-148.5,67.5" transform="translate(-22.49 -19.41)"/>
  <circle class="cls-2" cx="17.45" cy="11.8" r="6.9"/>
  <path class="cls-3" d="M285.5,63.5" transform="translate(-22.49 -19.41)"/>
  <path class="cls-4" d="M377.5,33.86a8.68,8.68,0,0,1-.62,3.23l-1.26,2.19L360,54.89,344.38,39.28l-1.26-2.19A8.75,8.75,0,1,1,360,33.86a8.75,8.75,0,0,1,17.5,0Z" transform="translate(-22.49 -19.41)"/>
  <polygon class="cls-5" points="672.42 24.42 650.62 24.24 641.6 4.5 679.93 4.5 672.42 24.42"/>
  <circle class="cls-6" cx="649.86" cy="38.05" r="2.63"/>
  <path d="M672.53,42.32a8.24,8.24,0,0,0-4.11,6.41,3.1,3.1,0,0,0,1.51,3.3,10.07,10.07,0,0,0,4.23.54c7.25.06,14.51,0,21.76,0a1.37,1.37,0,0,0,0-2.74H675c-.66,0-1.32,0-2,0a4.42,4.42,0,0,1-1.63-.15c-.7-.38,0-2,.26-2.63a5.54,5.54,0,0,1,2.22-2.33,1.37,1.37,0,0,0-1.38-2.37Z" transform="translate(-22.49 -19.41)"/>
  <circle class="cls-6" cx="671.29" cy="38.05" r="2.63"/>
  <polygon class="cls-6" points="645.86 5.12 635.08 5.12 636.62 0.5 644.32 0.5 645.86 5.12"/>
  <line class="cls-4" x1="9.36" y1="355.58" x2="20.4" y2="355.58"/>
  <line class="cls-4" x1="25.31" y1="322.6" x2="25.42" y2="351.04"/>
  <line class="cls-4" x1="33.26" y1="322.96" x2="15.94" y2="322.96"/>
  <circle class="cls-4" cx="4.58" cy="355.75" r="2.83"/>
  <circle class="cls-4" cx="25.31" cy="355.75" r="2.83"/>
  <path d="M372,342.19v36.29H347.67V342.86c3,4.28,7.35,6.77,11.95,6.77,4.83,0,9.38-2.75,12.4-7.44m1.35-2h-1.73c-2.64,4.91-7,8.12-12,8.12s-9.38-3.21-12-8.12h-1.27v39.68h27.05V340.16Z" transform="translate(-22.49 -19.41)"/>
  <path d="M373.82,342.9l9.27,6.35-.46.49-1.79,1.91a13.22,13.22,0,0,0-2.67,3.43,14.16,14.16,0,0,0-.89,2l-3.46-2.37V342.9m-1.35-2.56v15.12l5.63,3.86a12,12,0,0,1,1.26-3.6,12.09,12.09,0,0,1,2.43-3.11l3.36-3.58-12.68-8.69Z" transform="translate(-22.49 -19.41)"/>
  <path d="M346.32,342.81v11.85l-3.6,2.46a13.69,13.69,0,0,0-.89-2,13.53,13.53,0,0,0-2.67-3.44l-2.25-2.39,9.41-6.44m1.35-2.57L334.85,349q1.68,1.79,3.35,3.58a11.87,11.87,0,0,1,2.44,3.11,12.24,12.24,0,0,1,1.26,3.6l5.77-3.95V340.24Z" transform="translate(-22.49 -19.41)"/>
  <g id="dele">
    <polygon class="cls-7" points="671.98 317.5 672.62 319 655.33 326.36 668.75 357.84 667.02 358.58 653.61 327.1 636.32 334.47 635.68 332.97 671.98 317.5"/>
    <polygon class="cls-8" points="673.8 358.37 673.8 359.8 670.45 363.69 636.56 363.69 636.56 358.37 673.8 358.37"/>
    <polygon class="cls-8" points="674.83 348.92 674.83 356.22 673.42 358.37 668.52 358.37 674.75 348.87 674.83 348.92"/>
    <rect class="cls-8" x="674.83" y="347.11" width="4.5" height="11.05"/>
    <path class="cls-8" d="M684.78,361.55a3.28,3.28,0,1,1-4.59-4.59,8.39,8.39,0,0,0-3.33-.67,8.48,8.48,0,0,0-3.34.67,3.28,3.28,0,1,1-4.59,4.59,8.57,8.57,0,0,0-.67,3.33,8.66,8.66,0,0,0,.67,3.34,3.28,3.28,0,1,1,4.59,4.59,8.66,8.66,0,0,0,3.34.67,8.57,8.57,0,0,0,3.33-.67,3.28,3.28,0,1,1,4.59-4.59,8.48,8.48,0,0,0,.67-3.34A8.39,8.39,0,0,0,684.78,361.55Zm-7.92,5a1.64,1.64,0,1,1,1.64-1.64A1.63,1.63,0,0,1,676.86,366.52Z" transform="translate(-22.49 -19.41)"/>
    <circle class="cls-9" cx="654.36" cy="345.47" r="10.23"/>
  </g>
  <path class="cls-4" d="M56,675.3H38.77l0,0,0,0H34A3.06,3.06,0,0,0,31,678.35v1.78a3.29,3.29,0,0,0,.05.54A1.36,1.36,0,0,0,31,681v2.65H26.29A16,16,0,1,1,56,675.3Z" transform="translate(-22.49 -19.41)"/>
  <rect class="cls-10" x="5.18" y="664.28" width="1.78" height="9.91"/>
  <rect class="cls-10" x="3.66" y="673.42" width="4.83" height="5.34"/>
  <rect class="cls-6" x="5.44" y="678.76" width="1.27" height="2.29"/>
  <polygon class="cls-6" points="4.77 678.76 4.77 681.17 4.29 681.17 3.66 680.24 3.66 678.76 4.77 678.76"/>
  <polygon class="cls-6" points="8.58 678.76 8.58 680.24 7.96 681.17 7.47 681.17 7.47 678.76 8.58 678.76"/>
  <path class="cls-4" d="M383.75,659.75v40.5h-47.5V700c10.6-2.91,20.68-11.88,26.18-24.67A48.17,48.17,0,0,0,366.26,660h3.28v-.21Z" transform="translate(-22.49 -19.41)"/>
  <circle class="cls-11" cx="343.76" cy="640.84" r="1.25"/>
  <circle class="cls-12" cx="608.51" cy="660.59" r="17.65"/>
  <polygon class="cls-13" points="630.5 662.34 622.22 663.42 625.42 655.7 630.5 662.34"/>
  <polygon class="cls-13" points="594.79 657.5 586.5 658.59 591.59 665.22 594.79 657.5"/>
  <polygon class="cls-14" points="902.45 649.84 905.14 658.12 913.85 658.12 906.8 663.23 909.49 671.51 902.45 666.39 895.41 671.51 898.1 663.23 891.06 658.12 899.76 658.12 902.45 649.84"/>
  <polygon class="cls-14" points="926.98 649.84 929.67 658.12 938.37 658.12 931.33 663.23 934.02 671.51 926.98 666.39 919.94 671.51 922.63 663.23 915.58 658.12 924.29 658.12 926.98 649.84"/>
  <polygon class="cls-14" points="951.5 649.84 954.2 658.12 962.9 658.12 955.86 663.23 958.55 671.51 951.5 666.39 944.46 671.51 947.15 663.23 940.11 658.12 948.82 658.12 951.5 649.84"/>
  <polygon class="cls-14" points="976.03 649.84 978.72 658.12 987.43 658.12 980.38 663.23 983.07 671.51 976.03 666.39 968.99 671.51 971.68 663.23 964.64 658.12 973.34 658.12 976.03 649.84"/>
  <polygon class="cls-15" points="1000.56 649.67 1003.25 657.95 1011.95 657.95 1004.91 663.07 1007.6 671.34 1000.56 666.23 993.52 671.34 996.21 663.07 989.16 657.95 997.87 657.95 1000.56 649.67"/>
  <polygon class="cls-14" points="1000.95 651.03 1000.95 666.67 1000.56 666.39 993.51 671.51 996.21 663.23 989.16 658.12 997.87 658.12 1000.56 649.84 1000.95 651.03"/>
  <path class="cls-16" d="M1274.12,665.8v23a2.93,2.93,0,0,0-1.07,2.25v.15h-15.34a2.9,2.9,0,0,0-5.8,0h-3.16V669.51a3.71,3.71,0,0,1,3.72-3.71Z" transform="translate(-22.49 -19.41)"/>
  <path class="cls-17" d="M1257.71,691.17v.14a2.9,2.9,0,0,1-5.8,0v-.14a2.9,2.9,0,0,1,5.8,0Z" transform="translate(-22.49 -19.41)"/>
  <path class="cls-18" d="M1278.85,691a2.81,2.81,0,0,1,0,.29,2.9,2.9,0,0,1-5.79-.14V691a2.93,2.93,0,0,1,1.07-2.25.67.67,0,0,1,.14-.09,2.86,2.86,0,0,1,1.69-.56A2.91,2.91,0,0,1,1278.85,691Z" transform="translate(-22.49 -19.41)"/>
  <path class="cls-16" d="M1285.25,679.38v11.93h-6.41a2.81,2.81,0,0,0,0-.29,2.91,2.91,0,0,0-2.9-2.9,2.86,2.86,0,0,0-1.69.56v-6.54h-.14V674h8.13l3,5.34Z" transform="translate(-22.49 -19.41)"/>
  <polygon class="cls-16" points="1258.67 662.74 1258.67 662.76 1251.62 662.76 1251.62 657.97 1256.57 657.97 1258.67 662.74"/>
  <path class="cls-19" d="M1604.1,683.59a13.05,13.05,0,0,0-3.08-5.76c-.5-.48-1.09-1-2-1.76-.41-.37-.89-.83-1.45-1.38a39,39,0,0,1-3.45-3.73c-1.64-2.07-2.46-3.11-2.87-4.59a8.84,8.84,0,0,1,.86-6.32,22.75,22.75,0,0,0-4.59,4.88,16.53,16.53,0,0,0-3.16,6.89,9.92,9.92,0,0,0,.06,3.62,5.15,5.15,0,0,1-.06,2.69,13.49,13.49,0,0,1-1-2c-.29-.69-.44-1.17-.44-1.17a13.33,13.33,0,0,1-.57-4,18,18,0,0,0-4.6,15.5c.23,1.07.37,1.85.46,2.39,0,.18.08.5.18.93a12.47,12.47,0,0,0,.37,1.27,13.2,13.2,0,0,0,25.68-4.31,15.29,15.29,0,0,0-.36-3.09Z" transform="translate(-22.49 -19.41)"/>
  <path class="cls-20" d="M1585.71,668.94" transform="translate(-22.49 -19.41)"/>
  <path class="cls-21" d="M1602.22,693.37a4.65,4.65,0,0,0-.33-4.29c-.38-.52-.52-.38-2-1.65s-1.79-1.77-2-1.65.41,1.16.66,2.64a8.41,8.41,0,0,1-1.32,5.94c-1.19,1.72-2.63,2.16-2.45,2.58s2.35.22,4.1-.6A5.81,5.81,0,0,0,1602.22,693.37Z" transform="translate(-22.49 -19.41)"/>
  <text class="cls-22" transform="translate(1265.34 665.93)"><tspan class="cls-23">F</tspan><tspan class="cls-24" x="5.53" y="0">r</tspan><tspan class="cls-25" x="9.5" y="0">i f</tspan><tspan class="cls-26" x="18.36" y="0">r</tspan><tspan x="22.22" y="0">agt </tspan><tspan class="cls-27" x="41.23" y="0">o</tspan><tspan class="cls-28" x="47.74" y="0">v</tspan><tspan x="53.39" y="0">er 599 DKK</tspan></text>
  <text class="cls-22" transform="translate(1586.76 669.4)">+10.000 p<tspan class="cls-28" x="49.79" y="0">r</tspan><tspan x="53.59" y="0">oduk</tspan><tspan class="cls-29" x="79.19" y="0">t</tspan><tspan class="cls-25" x="83.09" y="0">er</tspan></text>
  <text class="cls-22" transform="translate(1013.61 665.95)">4.6 ud af 5</text>
  <text class="cls-22" transform="translate(635.31 665)">365 dages <tspan class="cls-27" x="53.58" y="0">b</tspan><tspan class="cls-30" x="60.32" y="0">yt</tspan><tspan class="cls-31" x="69.95" y="0">t</tspan><tspan x="73.85" y="0">e</tspan><tspan class="cls-32" x="79.86" y="0">r</tspan><tspan class="cls-25" x="83.66" y="0">et</tspan></text>
</svg>
