<svg id="Layer_1" data-name="Layer 1" xmlns="http://www.w3.org/2000/svg" viewBox="0 0 80 80">
  <defs>
    <style>
      .cls-1 {
        fill: #0cf62c;
      }

      .cls-2 {
        fill: none;
        stroke: #0cf62c;
        stroke-miterlimit: 10;
        stroke-width: 2.63px;
      }
    </style>
  </defs>
  <path class="cls-1" d="M34.92,42.79h10c1.12,0,4.66.35,6.12,2.57.08.13.16.27.23.41l0,4.68,0,2.24H28.73l0-4,0-3.36a1.41,1.41,0,0,1,.11-.38c.63-1.46,4.05-2.13,6.16-2.13m0-3c-.68,0-7.25.1-8.91,3.93a4.4,4.4,0,0,0-.36,1.43c0,3.51.07,7,.11,10.54H54.35c0-3.51-.07-7-.11-10.54a7.06,7.06,0,0,0-.71-1.43c-2.36-3.61-7.4-3.89-8.58-3.93h-10Z"/>
  <circle class="cls-2" cx="39.95" cy="31.21" r="6.9"/>
</svg>
