<svg id="Layer_1" data-name="Layer 1" xmlns="http://www.w3.org/2000/svg" viewBox="0 0 80 80">
  <defs>
    <style>
      .cls-1 {
        fill: none;
        stroke-width: 2.75px;
      }

      .cls-1, .cls-2 {
        stroke: #0bd45e;
        stroke-miterlimit: 10;
      }

      .cls-2, .cls-3 {
        fill: #0bd45e;
      }
    </style>
  </defs>
  <polygon class="cls-1" points="54.91 43.83 33.11 43.65 24.09 23.91 62.43 23.91 54.91 43.83"/>
  <circle class="cls-2" cx="32.36" cy="57.46" r="2.63"/>
  <path class="cls-3" d="M32.53,42.32a8.24,8.24,0,0,0-4.11,6.41A3.1,3.1,0,0,0,29.93,52a10.07,10.07,0,0,0,4.23.54c7.25.06,14.51,0,21.76,0a1.37,1.37,0,0,0,0-2.74H35c-.66,0-1.32,0-2,0a4.42,4.42,0,0,1-1.63-.15c-.7-.38,0-2,.26-2.63a5.54,5.54,0,0,1,2.22-2.33,1.37,1.37,0,0,0-1.38-2.37Z"/>
  <circle class="cls-2" cx="53.78" cy="57.46" r="2.63"/>
  <polygon class="cls-2" points="28.36 24.53 17.57 24.53 19.11 19.91 26.81 19.91 28.36 24.53"/>
</svg>
