<svg id="Layer_1" data-name="Layer 1" xmlns="http://www.w3.org/2000/svg" viewBox="0 0 184 80">
  <defs>
    <style>
      .cls-1, .cls-2 {
        stroke: #000;
        stroke-miterlimit: 10;
        stroke-width: 0.48px;
      }

      .cls-2 {
        fill: #666;
      }

      .cls-3 {
        font-size: 12px;
        font-family: MyriadPro-Regular, Myriad Pro;
      }
    </style>
  </defs>
  <polygon class="cls-1" points="16.95 29.25 19.64 37.52 28.34 37.52 21.3 42.64 23.99 50.92 16.95 45.8 9.9 50.92 12.59 42.64 5.55 37.52 14.26 37.52 16.95 29.25"/>
  <polygon class="cls-1" points="41.47 29.25 44.16 37.52 52.87 37.52 45.83 42.64 48.52 50.92 41.47 45.8 34.43 50.92 37.12 42.64 30.08 37.52 38.78 37.52 41.47 29.25"/>
  <polygon class="cls-1" points="66 29.25 68.69 37.52 77.39 37.52 70.35 42.64 73.04 50.92 66 45.8 58.96 50.92 61.65 42.64 54.61 37.52 63.31 37.52 66 29.25"/>
  <polygon class="cls-1" points="90.53 29.25 93.22 37.52 101.92 37.52 94.88 42.64 97.57 50.92 90.53 45.8 83.48 50.92 86.17 42.64 79.13 37.52 87.84 37.52 90.53 29.25"/>
  <polygon class="cls-2" points="115.06 29.08 117.74 37.36 126.45 37.36 119.41 42.47 122.1 50.75 115.06 45.63 108.01 50.75 110.7 42.47 103.66 37.36 112.36 37.36 115.06 29.08"/>
  <polygon class="cls-1" points="115.44 30.43 115.44 46.08 115.05 45.8 108.01 50.92 110.7 42.64 103.66 37.53 112.37 37.53 115.05 29.25 115.44 30.43"/>
  <text class="cls-3" transform="translate(128.11 45.36)">4.6 ud af 5</text>
</svg>
